# xmcd
#
# Track frame offsets: 
#        150
#        26336
#        42269
#        61098
#        74907
#        105167
#
# Disc length: 1751 seconds
#
# Revision: 0
# Processed by: cddbd v1.5.1PL0 Copyright (c) Steve Scherf et al.
# Submitted via: ExactAudioCopy v0.95a5
#
DISCID=4706d506
DTITLE=Black Diamond Heavies - You Damn Right
DYEAR=2004
DGENRE=Blues
TTITLE0=hambone
TTITLE1=leave it in the road
TTITLE2=big boat
TTITLE3=poor brown sugar
TTITLE4=no doctor
TTITLE5=down down down
EXTD=
EXTT0=
EXTT1=
EXTT2=
EXTT3=
EXTT4=
EXTT5=
PLAYORDER=
